<svg height="448pt" viewBox="0 -100 448.00007 448" width="448pt" xmlns="http://www.w3.org/2000/svg"><path d="m121.359375 200h205.28125c43.03125.011719 79.761719-31.097656 86.832031-73.542969l15.464844-92.695312-16.160156 2.398437c-62.5 9.246094-125.597656 13.886719-188.777344 13.886719-63.1875 0-126.292969-4.644531-188.800781-13.894531l-16.160157-2.398438 15.488282 92.6875c6.523437 39.335938 38.707031 69.355469 78.402344 73.132813 2.789062.265625 5.597656.425781 8.429687.425781zm0 0"/><path d="m105.886719 214.761719c-1.550781-.234375-3.109375-.480469-4.65625-.800781-1.542969-.320313-2.902344-.625-4.34375-.976563-1.4375-.351563-3.0625-.761719-4.582031-1.207031-.585938-.167969-1.183594-.28125-1.769532-.457032-13.46875 13.269532-31.625 20.703126-50.535156 20.679688-2.085938-.023438-4.089844.808594-5.542969 2.304688-1.570312 1.476562-2.460937 3.539062-2.457031 5.695312-.015625 2.085938.8125 4.085938 2.296875 5.550781 1.480469 1.570313 3.546875 2.453125 5.703125 2.449219 26.625-.050781 51.8125-12.097656 68.558594-32.800781-.894532-.09375-1.773438-.304688-2.671875-.4375zm0 0"/><path d="m408 248c2.085938.019531 4.09375-.8125 5.550781-2.304688 1.566407-1.480468 2.453125-3.539062 2.449219-5.695312.015625-2.085938-.8125-4.085938-2.296875-5.550781-1.480469-1.570313-3.546875-2.457031-5.703125-2.449219-18.90625.03125-37.066406-7.394531-50.535156-20.664062-.59375.183593-1.199219.296874-1.800782.472656-1.496093.429687-3.007812.800781-4.519531 1.183594-1.511719.382812-2.921875.695312-4.390625.984374-1.472656.289063-3.089844.550782-4.640625.800782-.898437.125-1.777343.335937-2.671875.445312 16.75 20.691406 41.9375 32.734375 68.558594 32.777344zm0 0"/><path d="m445.550781 13.695312c1.566407-1.480468 2.453125-3.539062 2.449219-5.695312.007812-4.230469-3.28125-7.738281-7.503906-8l-27.710938 4.136719c-125.171875 18.527343-252.390625 18.527343-377.5625 0l-27.71875-4.136719c-1.910156.101562-3.710937.917969-5.046875 2.289062-1.574219 1.480469-2.4648435 3.550782-2.457031 5.710938 0 4.417969 3.582031 8 8 8 .464844 0 .925781.039062 1.382812.121094l1.21875.214844 26.964844 4c123.617188 18.296874 249.25 18.296874 372.867188 0l28.183594-4.207032c.457031-.082031.917968-.125 1.382812-.128906 2.085938.019531 4.09375-.8125 5.550781-2.304688zm0 0"/></svg>